<svg width="168" height="168" viewBox="0 0 168 168" fill="none" xmlns="http://www.w3.org/2000/svg">
<ellipse cx="87.7716" cy="75.0641" rx="3.47884" ry="3.56281" transform="rotate(-44.95 87.7716 75.0641)" fill="#FFB6C5"/>
<ellipse cx="77.7638" cy="73.8474" rx="3.48049" ry="3.56446" transform="rotate(-44.95 77.7638 73.8474)" fill="#FFB6C5"/>
<path d="M51.6384 52.5536C51.6384 52.5536 67.1146 26.7858 98.0504 36.87C128.937 46.9558 121.638 85.2428 121.619 85.3433C121.754 84.6419 127.104 83.9735 127.671 83.8911C143.455 81.5582 155.195 96.2391 156.359 110.708C157.805 128.653 143.924 141.364 128.115 146.836" stroke="#FFB6C5" stroke-width="0.924"/>
<path fill-rule="evenodd" clip-rule="evenodd" d="M124.831 119.364C127.109 124.977 128.402 131.439 128.599 137.87C128.644 132.015 127.806 125.546 125.157 119.43C124.313 117.487 123.296 115.624 122.118 113.864C122.113 113.85 122.104 113.839 122.093 113.831C118.458 108.398 112.96 103.574 104.84 100.131L98.0587 98.1553C98.0587 98.1553 99.1322 100.562 97.6356 103.677C96.139 106.792 92.4527 110.646 88.5359 109.738C84.6192 108.829 80.3138 106.743 80.9625 102.513C81.6112 98.2837 81.8911 96.7805 81.8911 96.7805L58.7279 97.0061C61.2106 100.347 64.6467 108.024 57.7055 120.433L62.0174 120.268C62.0174 120.268 59.1395 147.346 65.6642 157.847C65.7103 157.931 65.7613 158.012 65.8123 158.084L102.651 157.931H105.211C105.221 157.904 105.229 157.876 105.235 157.847H96.3284C95.3123 157.847 94.3383 157.441 93.6217 156.721C93.1835 156.283 92.8586 155.745 92.675 155.154C92.5612 154.785 92.5057 154.4 92.5104 154.014C92.514 151.898 94.2268 150.182 96.3432 150.175H118.379C118.487 150.175 118.602 150.175 118.708 150.188C118.727 150.191 118.746 150.191 118.765 150.188H118.798C118.773 150.193 118.747 150.197 118.721 150.201C118.676 150.208 118.631 150.214 118.586 150.226H118.575C118.681 150.228 118.788 150.224 118.894 150.213C119.068 150.202 119.242 150.181 119.414 150.152C119.511 150.137 119.607 150.119 119.702 150.098L119.803 150.079C119.888 150.061 119.973 150.037 120.059 150.013L120.059 150.013C120.096 150.002 120.132 149.992 120.168 149.982C120.288 149.944 120.404 149.9 120.519 149.856C120.634 149.811 120.749 149.765 120.865 149.707C120.877 149.707 120.888 149.703 120.898 149.696C121 149.645 121.102 149.592 121.197 149.541C121.402 149.427 121.599 149.299 121.787 149.157L121.951 149.024C122.097 148.909 122.236 148.785 122.366 148.652C122.488 148.53 122.604 148.402 122.712 148.268L122.729 148.247C122.832 148.119 122.934 147.992 123.026 147.852C123.109 147.73 123.191 147.603 123.257 147.475C123.301 147.397 123.346 147.31 123.384 147.231L123.39 147.222C123.401 147.208 123.41 147.196 123.41 147.18C123.443 147.116 123.473 147.05 123.499 146.983C123.578 146.807 123.647 146.628 123.705 146.444C123.756 146.28 123.8 146.105 123.838 145.932C123.858 145.843 123.876 145.753 123.889 145.664C123.915 145.499 123.934 145.334 123.947 145.158C123.947 145.107 123.95 145.055 123.953 145.002L123.953 145.002C123.957 144.949 123.96 144.896 123.96 144.846C123.961 144.296 123.879 143.75 123.716 143.225C123.695 143.141 123.667 143.058 123.634 142.977C123.607 142.891 123.575 142.808 123.537 142.727C123.263 142.088 122.872 141.507 122.384 141.013C122.326 140.95 122.263 140.89 122.198 140.833C122.01 140.656 121.807 140.495 121.591 140.352C121.563 140.335 121.536 140.317 121.508 140.298C121.465 140.269 121.421 140.24 121.373 140.213C120.779 139.841 120.115 139.593 119.422 139.483C119.154 139.437 118.882 139.414 118.609 139.412L115.18 139.393L110.163 139.368H110.013C109.865 139.355 109.719 139.348 109.564 139.348H108.81C108.861 134.491 107.987 130.818 106.799 128.087L106.8 128.087C106.82 128.047 112.518 116.842 124.831 119.364ZM125.27 157.84C125.27 157.84 125.61 156.9 126.077 155.256C125.762 156.14 125.412 157.002 125.027 157.84H125.27ZM118.379 157.841C118.523 157.841 118.666 157.836 118.809 157.823C118.793 157.825 118.777 157.826 118.762 157.827C118.646 157.837 118.602 157.841 119.077 157.841H118.379Z" fill="#353642"/>
<path d="M83.0122 90.34C83.0122 90.34 82.4557 93.7185 81.8795 96.7775C80.2331 96.7956 78.5867 96.8087 76.9584 96.8219C76.1352 92.189 77.0292 88.5603 78.0911 86.1417C79.4297 89.1941 81.4514 90.1227 83.0122 90.34Z" fill="#FF2352"/>
<path d="M110.072 102.53C106.725 100.727 103.157 99.3686 99.4581 98.4879L98.2464 98.2788C98.2464 98.2788 97.3441 96.2274 97.3392 96.2208C96.9161 95.1457 96.2147 93.7183 95.9974 92.5856C95.7326 91.2476 95.6683 89.8776 95.8064 88.5206C96.0435 86.5054 96.9819 82.2429 98.6777 80.8994C100.092 79.7865 100.675 80.0203 101.477 78.28C102.053 77.0386 102.287 74.9527 101.167 74.0373C99.9257 73.033 99.3955 73.5433 97.9105 73.6981C92.2666 74.2579 89.0413 70.1962 86.9669 65.5023C86.6376 64.74 86.2951 63.9349 85.7568 63.2863C85.1394 62.5388 84.2849 62.3709 83.5852 61.7666C83.2872 61.5065 83.083 61.0817 83.2263 60.7129C83.3107 60.5367 83.4333 60.3815 83.5852 60.2585C84.9075 59.0404 86.4955 58.1469 88.2231 57.649C90.9557 56.8589 93.8432 56.7689 96.6197 57.3872C99.5174 58.3471 102.122 60.1647 103.875 62.9422C106.294 66.7799 106.877 70.7609 105.522 74.7287C104.134 78.7921 102.585 83.565 105.193 87.4752C108.665 92.6696 110.757 96.3229 110.072 102.53Z" fill="#FF2352"/>
<path d="M81.8862 96.7778C80.2398 96.7959 78.5934 96.8091 76.9651 96.8223C64.5578 96.8865 52.6823 96.7136 40.2356 98.9461" stroke="black" stroke-width="0.924"/>
<path d="M98.0505 98.1589C98.5231 98.2627 98.9906 98.3713 99.4582 98.4882C101.281 98.9288 103.075 99.4786 104.832 100.135C106.634 100.805 108.386 101.605 110.073 102.528C110.076 102.525 110.082 102.525 110.086 102.528C112.74 103.966 115.192 105.748 117.381 107.827C119.211 109.61 120.793 111.63 122.085 113.834C122.096 113.843 122.105 113.854 122.109 113.867C123.157 115.627 124.067 117.464 124.831 119.365C127.109 124.977 128.402 131.439 128.599 137.87C128.779 143.944 127.979 149.991 126.085 155.256C125.77 156.141 125.42 157.002 125.035 157.841C125.01 157.905 124.977 157.963 124.953 158.027" stroke="black" stroke-width="0.924"/>
<path d="M105.204 157.945C105.204 157.945 105.204 157.932 105.204 157.925C105.215 157.898 105.223 157.87 105.229 157.841" stroke="black" stroke-width="0.924"/>
<path d="M100.859 120.921C100.859 120.921 104.442 122.661 106.796 128.094C107.98 130.825 108.857 134.498 108.806 139.355V139.368C108.78 142.465 108.372 146.041 107.423 150.162V150.185" stroke="black" stroke-width="0.924"/>
<path d="M33.0589 51.9463C33.6911 49.5541 34.7053 47.0877 35.4676 46.0505C36.6662 44.437 38.2302 42.8993 40.2421 43.0376C41.5346 43.1216 42.8039 43.8361 42.8616 45.252C42.9159 46.7881 41.2958 48.4938 40.7756 49.9377C40.2816 51.3305 40.0561 52.9522 40.3162 54.4175C40.5764 55.8828 41.8918 57.0271 43.311 57.3415C43.8493 57.4832 44.4219 57.4057 44.9031 57.1258C46.2927 56.2467 46.0012 53.9055 45.9453 52.5242C45.8794 50.9749 45.8811 49.2231 47.2031 48.1628C48.1745 47.3841 49.648 47.9011 50.3642 48.7572C51.6089 50.239 51.6698 52.4698 51.7324 54.294C51.9184 59.7897 50.9421 65.0582 47.7415 69.6846C46.0951 72.0735 44.3993 74.2171 43.7325 77.1477C41.658 86.2556 41.4275 92.5695 40.2355 101.819" stroke="black" stroke-width="0.924"/>
<path d="M65.3662 158.088C59.0045 140.007 62.0174 120.254 62.0174 120.254L27.8447 121.337C24.901 121.43 22.0611 120.245 20.0573 118.086C18.0535 115.928 17.082 113.008 17.3934 110.079L25.7637 79.5549L27.5747 73.0433C28.1522 70.9945 28.0199 68.8105 27.1993 66.8463L26.3465 64.8113C26.3465 64.8113 24.8005 61.6585 28.2662 61.9548C30.1299 62.1195 31.9788 62.9114 33.5429 63.9058C34.7711 64.6879 36.6447 66.2009 36.0652 67.8786C35.3803 69.8543 32.695 70.3482 31.1178 69.2369" stroke="black" stroke-width="0.924"/>
<path d="M27.1137 61.9383C27.1137 61.9383 24.1864 55.3527 32.2176 57.0568C40.2487 58.7608 42.1717 67.5361 36.0422 66.5483" stroke="black" stroke-width="0.924"/>
<path d="M29.7611 56.6797C29.7611 56.6797 27.1927 53.5597 31.0321 52.0697C34.8716 50.5797 48.8133 57.6165 39.87 64.5478" stroke="black" stroke-width="0.924"/>
<path d="M85.3173 90.1921C84.5719 90.3966 83.7926 90.447 83.0271 90.3402C81.4597 90.1229 79.438 89.1878 78.106 86.1419C77.8294 85.5195 77.6047 84.8752 77.4343 84.2156C76.756 81.695 76.4596 78.1882 76.8564 73.2984C76.9338 72.3583 77.049 71.4034 77.2087 70.4501C77.4731 68.7918 77.8993 67.1634 78.4814 65.5883C78.4814 65.5883 78.4814 65.5751 78.4946 65.5685C79.9467 61.7291 82.5003 58.489 86.7941 57.2427C90.0142 56.3138 93.4377 56.3631 96.6297 57.3843C99.5273 58.3441 102.132 60.1617 103.885 62.9392C106.304 66.777 106.887 70.758 105.532 74.7258C104.144 78.7891 102.595 83.562 105.202 87.4722C108.67 92.6748 110.762 96.3282 110.091 102.535" stroke="black" stroke-width="0.924"/>
<path d="M75.648 97.0147C74.3868 90.9675 76.0892 86.5584 77.4261 84.2156" stroke="black" stroke-width="0.924"/>
<path d="M77.2088 70.4436C77.2088 70.4436 79.9698 67.5574 83.1687 72.1163" stroke="black" stroke-width="0.924"/>
<path fill-rule="evenodd" clip-rule="evenodd" d="M84.2388 84.9762C85.4061 85.7319 86.9866 85.2626 87.8461 84.0986C88.7796 82.8358 89.1533 81.1499 89.3558 79.6204C89.369 79.5101 89.3838 79.4014 89.3937 79.2911C87.9696 81.5286 85.2052 82.0653 82.7719 82.2991C82.8641 83.0308 83.1362 83.7283 83.5638 84.3291C83.7468 84.5847 83.9757 84.8041 84.2388 84.9762V84.9762Z" stroke="black" stroke-width="0.924" stroke-linecap="round" stroke-linejoin="round"/>
<path d="M96.918 95.0491L96.9114 95.0425" stroke="black" stroke-width="0.924"/>
<path d="M86.0565 69.556C86.0565 69.556 86.995 68.0363 90.2021 69.1559C93.4093 70.2754 93.4472 72.1046 93.4472 72.1046" stroke="black" stroke-width="0.924"/>
<path d="M78.7662 73.3344C78.7662 73.3344 80.248 72.5853 81.4087 73.3344" stroke="black" stroke-width="0.924"/>
<path d="M86.7513 74.0242C86.7513 74.0242 88.233 73.2751 89.3855 74.0242" stroke="black" stroke-width="0.924"/>
<path d="M83.0123 90.3401C83.0123 90.3401 82.4558 93.7185 81.8796 96.7775C81.7956 97.2122 81.715 97.6402 81.6425 98.0633C81.2655 100.123 80.9642 101.954 80.951 102.509C80.8555 107.119 85.2136 109.777 89.4234 109.733C95.3307 109.669 98.7848 104.173 98.2283 98.6692C97.8645 97.6649 97.4924 96.6606 97.1285 95.6563C96.661 94.3688 96.0534 93.1159 95.79 91.7593C95.5574 90.4227 95.5319 89.0584 95.7143 87.7141C95.9514 85.7055 96.3416 82.7107 98.0374 81.3672C99.4516 80.2542 100.928 79.5232 101.735 77.783C102.311 76.5416 102.285 74.9429 101.166 74.0276C99.9241 73.0232 97.96 73.1451 96.4749 73.2916C86.8962 74.2712 85.3025 64.5756 82.711 63.214C80.5872 62.0928 78.9935 64.6085 78.4946 65.542L78.4748 65.5815C78.474 65.5909 78.47 65.5996 78.4633 65.6062C78.3728 65.7709 78.3283 65.8812 78.3283 65.8812" stroke="black" stroke-width="0.924"/>
<path d="M82.767 74.4507C82.767 74.4507 81.766 77.727 81.8433 78.2176C81.9207 78.7083 83.088 78.3658 83.088 78.3658" stroke="black" stroke-width="0.924"/>
<ellipse cx="87.7717" cy="75.0641" rx="3.92337" ry="4.01886" transform="rotate(-44.95 87.7717 75.0641)" stroke="black" stroke-width="0.924"/>
<ellipse cx="77.7639" cy="73.8475" rx="3.92337" ry="4.01886" transform="rotate(-44.95 77.7639 73.8475)" stroke="black" stroke-width="0.924"/>
<path fill-rule="evenodd" clip-rule="evenodd" d="M74.2863 73.4198C74.4513 71.6722 75.9209 70.3383 77.6762 70.3427H77.6812C77.8242 70.3433 77.9671 70.3521 78.1092 70.369C80.0375 70.6072 81.4286 72.3328 81.2522 74.2677C81.087 76.0172 79.6146 77.3517 77.8573 77.3448C77.7142 77.3442 77.5713 77.3354 77.4293 77.3185C75.501 77.0803 74.1099 75.3547 74.2863 73.4198ZM80.0006 71.8161C79.4046 71.1633 78.5602 70.7931 77.6762 70.7971C76.1529 70.7912 74.8764 71.9478 74.7325 73.4643C74.6482 74.3442 74.9403 75.2187 75.5363 75.8715C76.1323 76.5243 76.9767 76.8945 77.8606 76.8905C79.384 76.8964 80.6605 75.7398 80.8044 74.2233C80.8886 73.3433 80.5966 72.4689 80.0006 71.8161Z" fill="white"/>
<path d="M83.8173 74.5806L81.7165 74.3254" stroke="black" stroke-width="0.924"/>
<path fill-rule="evenodd" clip-rule="evenodd" d="M36.5557 27.9891C36.9361 23.2277 40.8874 19.4015 45.662 19.1578H45.6636C49.5431 18.9567 53.1648 21.1019 54.8527 24.6007C56.5406 28.0994 55.9655 32.2693 53.3935 35.1805C53.3727 35.2028 53.3535 35.2265 53.3359 35.2513C52.6423 36.0154 51.8328 36.6654 50.9371 37.1776C50.7125 37.3008 50.504 37.4512 50.3164 37.6255C47.6994 38.9363 44.6165 38.9314 42.0037 37.6123C41.8065 37.444 41.5943 37.2941 41.3698 37.1645C40.5093 36.6728 39.7315 36.0489 39.0649 35.3156C37.2369 33.334 36.3263 30.6752 36.5557 27.9891ZM51.594 34.2914C51.6051 34.2715 51.6203 34.2542 51.6384 34.2404L51.6368 34.2437C53.7177 31.8876 54.0917 28.4774 52.5709 25.7263C51.05 22.9753 47.9631 21.4783 44.8612 21.9875C41.7593 22.4967 39.3129 24.902 38.7514 27.9948C38.1898 31.0877 39.6344 34.1995 42.3593 35.7666C42.5338 35.8696 42.6991 35.9875 42.8533 36.1189C44.871 37.1288 47.2466 37.1288 49.2643 36.1189C49.4069 35.9838 49.5663 35.8676 49.7385 35.7732C50.4305 35.3791 51.0566 34.8791 51.594 34.2914Z" fill="#FF2352"/>
<path d="M50.3131 37.6271C49.5468 38.3226 49.1112 39.3104 49.1145 40.3453V40.7866C49.1145 42.3276 47.9982 43.7089 46.4803 43.8637C45.6507 43.9488 44.8239 43.6792 44.2039 43.1216C43.5838 42.564 43.2284 41.7703 43.2253 40.9364V40.3453C43.2236 39.3048 42.7823 38.3133 42.0103 37.6156C44.623 38.9308 47.7033 38.935 50.3197 37.6271H50.3131Z" fill="#353642"/>
<path fill-rule="evenodd" clip-rule="evenodd" d="M50.3132 37.6269C49.5468 38.3224 49.1113 39.3102 49.1146 40.3451V40.7863C49.1146 42.3274 47.9983 43.7087 46.4803 43.8634C45.6508 43.9485 44.824 43.679 44.2039 43.1214C43.5839 42.5637 43.2285 41.77 43.2254 40.9361V40.3451C43.2236 39.3045 42.7823 38.3131 42.0104 37.6154C44.6231 38.9305 47.7034 38.9348 50.3197 37.6269H50.3132Z" stroke="black" stroke-width="0.924"/>
<path fill-rule="evenodd" clip-rule="evenodd" d="M55.8104 28.7906C55.8154 31.1464 54.954 33.4217 53.3902 35.1836C53.3707 35.2049 53.3525 35.2274 53.3359 35.2511C52.6413 36.0164 51.83 36.6671 50.9322 37.179C50.7091 37.3038 50.5014 37.454 50.3131 37.6268C47.6968 38.9347 44.6164 38.9305 42.0037 37.6153C41.8069 37.4443 41.5941 37.2927 41.3682 37.1625C38.1219 35.2964 36.2466 31.7221 36.5558 27.9904C36.9724 22.8278 41.393 18.9165 46.5679 19.1315C51.7428 19.3466 55.8236 23.6112 55.8104 28.7906V28.7906Z" stroke="black" stroke-width="0.924"/>
<path d="M43.4411 38.6048L41.2316 31.2816L40.6784 29.2072C40.6784 29.0789 40.7645 28.9667 40.8883 28.9335C41.0122 28.9003 41.1429 28.9545 41.2069 29.0656C41.7008 29.9382 42.4812 31.033 43.2583 31.005C44.5475 30.9589 43.4888 27.0454 42.4351 27.4554C41.3814 27.8653 43.4016 30.4518 45.4826 30.7745C47.5637 31.0972 46.994 27.5986 45.4826 27.4603C43.9712 27.322 45.0134 30.2691 47.7299 30.7745C50.4465 31.28 49.9394 28.2885 49.2035 27.6908C48.4675 27.0932 48.6964 30.544 50.4021 31.0972C50.9421 31.2734 51.3718 30.8964 51.5825 30.4271C51.7044 30.1538 51.6418 28.7709 51.3915 29.1973C50.8812 30.0715 50.7807 31.1631 50.5305 32.1279C49.9987 34.1694 49.1854 36.1237 48.7194 38.1833" stroke="black" stroke-width="0.924"/>
<path d="M28.9198 158.087C30.0855 157.541 137.582 158.087 137.582 158.087" stroke="black" stroke-width="0.924"/>
<path d="M46.1592 15.7114L46.0637 9.91113" stroke="black" stroke-width="1.23312"/>
<path d="M35.0971 21.1067L31.0815 16.9199" stroke="black" stroke-width="1.23312"/>
<path d="M57.2626 21.3667L61.367 17.2672" stroke="black" stroke-width="1.23312"/>
<path d="M118.795 150.175L118.935 150.188C118.859 150.201 118.77 150.215 118.693 150.233H118.574L107.427 150.175H106.167L87.4377 150.08C87.3669 150.08 87.2962 150.08 87.2254 150.08C87.2085 150.083 87.1912 150.083 87.1743 150.08C87.1743 150.08 87.1743 150.08 87.1628 150.08C87.0449 150.081 86.9271 150.072 86.8105 150.055C87.8122 149.942 88.7614 149.547 89.5484 148.917C89.6719 148.814 89.7987 148.715 89.9139 148.603L89.9271 148.59C89.954 148.568 89.9793 148.544 90.0028 148.519C90.9547 147.577 91.5247 146.317 91.6031 144.981C91.6031 144.917 91.6031 144.846 91.6031 144.782V144.679C91.5913 142.108 89.778 139.896 87.2583 139.381C87.2545 139.378 87.2489 139.378 87.2451 139.381C87.1233 139.35 86.9833 139.33 86.8549 139.311L87.1299 139.292C87.1748 139.289 87.2199 139.289 87.2649 139.292H87.4822L103.306 139.375L106.218 139.388L108.803 139.401H110.007H110.153H110.204C112.968 139.68 115.075 142.003 115.081 144.782C115.081 145.037 115.061 145.291 115.023 145.544C114.638 148.13 112.462 150.073 109.849 150.164C109.791 150.164 109.733 150.164 109.684 150.164H119.085C118.948 150.169 118.859 150.169 118.795 150.175Z" fill="white"/>
<path d="M93.62 156.718C94.3381 157.44 95.3149 157.845 96.3332 157.844H87.1496C85.3913 157.844 84.4364 157.416 83.7399 156.718C83.0205 155.998 82.6155 155.022 82.6138 154.005C82.6138 151.901 84.3409 150.172 87.1496 150.172H96.3332C94.7811 150.169 93.3807 151.103 92.7864 152.537C92.1921 153.971 92.5212 155.622 93.62 156.718Z" fill="#FFD3DC"/>
<path d="M123.978 144.859C123.978 144.961 123.978 145.07 123.965 145.172C123.952 145.345 123.933 145.511 123.907 145.677C123.894 145.766 123.876 145.857 123.856 145.945C123.818 146.11 123.774 146.291 123.723 146.457C123.665 146.641 123.596 146.821 123.517 146.996C123.491 147.063 123.461 147.129 123.428 147.193C123.428 147.213 123.415 147.226 123.402 147.244C123.364 147.328 123.319 147.409 123.275 147.488C123.204 147.617 123.127 147.743 123.044 147.865C122.947 148.013 122.839 148.147 122.73 148.282C122.622 148.416 122.506 148.544 122.384 148.665C122.254 148.798 122.115 148.922 121.969 149.037L121.805 149.171C121.617 149.312 121.42 149.44 121.215 149.554C121.12 149.605 121.018 149.658 120.916 149.709C120.906 149.716 120.895 149.72 120.883 149.721C120.767 149.778 120.652 149.824 120.537 149.869C120.422 149.913 120.306 149.958 120.186 149.996C120.064 150.029 119.943 150.066 119.821 150.093C119.522 150.161 119.218 150.206 118.912 150.226C118.848 150.226 118.785 150.226 118.721 150.226H118.617C118.688 150.208 118.759 150.201 118.83 150.188C118.838 150.185 118.846 150.185 118.854 150.188C118.822 150.187 118.79 150.183 118.759 150.175C118.78 150.172 118.802 150.172 118.823 150.175H119.105H109.684H109.849C111.007 150.113 112.115 149.679 113.008 148.939C113.143 148.829 113.271 148.712 113.393 148.588C113.495 148.489 113.591 148.384 113.681 148.273C113.75 148.197 113.814 148.116 113.872 148.031C113.91 147.985 113.943 147.941 113.974 147.896C114.035 147.815 114.09 147.729 114.139 147.64C114.214 147.535 114.281 147.425 114.338 147.31C114.4 147.201 114.455 147.087 114.503 146.971C114.528 146.92 114.547 146.862 114.58 146.807C114.625 146.691 114.663 146.576 114.7 146.461C114.753 146.296 114.804 146.122 114.842 145.95C114.865 145.858 114.882 145.764 114.893 145.669C114.901 145.646 114.905 145.622 114.906 145.598C114.914 145.58 114.918 145.56 114.919 145.54C114.919 145.476 114.938 145.419 114.944 145.354C114.944 145.341 114.944 145.33 114.944 145.317C114.968 145.138 114.979 144.958 114.977 144.778C114.979 144.695 114.975 144.612 114.964 144.53V144.472C114.964 144.39 114.957 144.309 114.944 144.228C114.901 143.784 114.799 143.347 114.643 142.929C114.556 142.678 114.446 142.436 114.314 142.206C114.193 141.975 114.052 141.755 113.892 141.548C113.851 141.488 113.806 141.43 113.757 141.375C113.737 141.355 113.719 141.329 113.693 141.304C113.608 141.192 113.513 141.087 113.411 140.99C113.336 140.914 113.247 140.837 113.169 140.754C113.092 140.672 112.964 140.575 112.855 140.498C112.746 140.42 112.675 140.364 112.58 140.3C112.438 140.197 112.288 140.105 112.132 140.025C111.987 139.94 111.835 139.867 111.678 139.806C111.496 139.728 111.31 139.66 111.121 139.602C111.057 139.578 110.99 139.561 110.922 139.551C110.746 139.501 110.567 139.462 110.385 139.436C110.295 139.416 110.206 139.409 110.11 139.398H110.097C110.085 139.401 110.072 139.401 110.059 139.398H110.155L115.171 139.422L118.601 139.442C118.873 139.443 119.145 139.467 119.414 139.513C120.111 139.621 120.779 139.869 121.378 140.242C121.456 140.287 121.525 140.338 121.596 140.382C121.812 140.525 122.015 140.685 122.203 140.863C122.268 140.919 122.33 140.979 122.389 141.042C122.877 141.537 123.268 142.118 123.542 142.756C123.58 142.837 123.612 142.921 123.639 143.007C123.672 143.087 123.7 143.17 123.721 143.255C123.887 143.774 123.973 144.314 123.978 144.859Z" fill="#FF2352"/>
<path fill-rule="evenodd" clip-rule="evenodd" d="M123.978 144.859C123.978 144.961 123.978 145.07 123.965 145.172C123.952 145.345 123.934 145.511 123.907 145.677C123.894 145.766 123.876 145.857 123.856 145.946C123.818 146.11 123.774 146.291 123.723 146.458C123.665 146.641 123.596 146.821 123.517 146.996C123.492 147.065 123.46 147.131 123.422 147.194C123.422 147.213 123.408 147.227 123.395 147.245C123.357 147.329 123.313 147.409 123.268 147.488C123.198 147.617 123.12 147.743 123.038 147.865C122.941 148.013 122.832 148.147 122.723 148.282C122.613 148.416 122.495 148.544 122.371 148.665C122.241 148.798 122.102 148.922 121.956 149.038L121.792 149.171C121.604 149.312 121.407 149.441 121.202 149.555C121.107 149.606 121.005 149.658 120.903 149.709C120.893 149.716 120.881 149.72 120.87 149.721C120.754 149.778 120.639 149.825 120.524 149.869C120.409 149.913 120.293 149.958 120.173 149.996C120.051 150.029 119.93 150.067 119.808 150.093L119.707 150.111C119.612 150.132 119.516 150.151 119.419 150.165C119.247 150.195 119.073 150.215 118.899 150.226C118.793 150.237 118.686 150.242 118.579 150.239C118.579 150.239 118.56 150.239 118.553 150.239L107.423 150.185L104.801 150.172L87.3193 150.083C87.2549 150.082 87.1906 150.078 87.1266 150.07C86.9801 150.07 86.8385 150.057 86.692 150.045C89.3055 149.734 91.3226 147.598 91.4846 144.971C91.4846 144.907 91.4846 144.836 91.4846 144.765V144.696C91.4878 142.11 89.6676 139.88 87.1332 139.365C87.0048 139.339 86.8764 139.321 86.743 139.301C86.8704 139.286 86.9984 139.278 87.1266 139.276C87.1716 139.273 87.2167 139.273 87.2616 139.276H87.3703L104.852 139.365L108.803 139.385H110.096H110.204L118.601 139.429C118.876 139.43 119.152 139.452 119.424 139.493C120.12 139.608 120.787 139.855 121.388 140.223C121.466 140.267 121.535 140.318 121.606 140.363C121.819 140.509 122.022 140.669 122.213 140.843C122.277 140.901 122.335 140.959 122.399 141.023C122.887 141.517 123.278 142.099 123.552 142.737L123.649 142.987C123.681 143.068 123.709 143.151 123.731 143.236C123.895 143.761 123.978 144.308 123.978 144.859V144.859Z" stroke="black" stroke-width="0.924" stroke-linecap="square" stroke-linejoin="round"/>
<path fill-rule="evenodd" clip-rule="evenodd" d="M114.969 144.762C114.97 144.942 114.961 145.121 114.943 145.3V145.338C114.929 145.422 114.918 145.503 114.905 145.582C114.903 145.606 114.899 145.63 114.891 145.653C114.881 145.747 114.863 145.841 114.84 145.934C114.803 146.099 114.752 146.278 114.699 146.445C114.661 146.56 114.623 146.675 114.579 146.79C114.546 146.848 114.526 146.906 114.501 146.955C114.453 147.071 114.398 147.184 114.337 147.294C114.279 147.409 114.212 147.519 114.137 147.623C114.089 147.713 114.034 147.799 113.973 147.88C113.942 147.925 113.909 147.969 113.871 148.015C113.812 148.1 113.748 148.181 113.68 148.257C113.59 148.367 113.494 148.472 113.392 148.572C113.269 148.693 113.14 148.808 113.006 148.916C112.115 149.66 111.008 150.098 109.849 150.164C109.791 150.164 109.733 150.164 109.684 150.164H87.3439C87.1398 150.164 86.929 150.152 86.7167 150.132C86.8544 150.116 86.9913 150.092 87.1266 150.062C87.1373 150.065 87.1489 150.065 87.1595 150.062H87.1711C88.2091 149.845 89.1613 149.33 89.9107 148.58L89.9238 148.567C90.8768 147.604 91.4338 146.318 91.4846 144.964C91.4846 144.9 91.4846 144.829 91.4846 144.759V144.752C91.4634 142.022 89.4198 139.732 86.7101 139.401C86.8517 139.383 86.9916 139.377 87.1332 139.37C87.1691 139.363 87.2059 139.363 87.2419 139.37C87.2456 139.367 87.2513 139.367 87.255 139.37C87.2824 139.367 87.31 139.367 87.3373 139.37H109.56C109.715 139.37 109.862 139.37 110.01 139.39H110.061C110.073 139.393 110.086 139.393 110.099 139.39H110.125L110.387 139.428C110.568 139.454 110.747 139.493 110.924 139.543C110.988 139.556 111.059 139.574 111.123 139.594C111.312 139.652 111.498 139.72 111.679 139.798C111.832 139.862 111.987 139.94 112.134 140.017C112.289 140.099 112.438 140.191 112.582 140.292C112.677 140.356 112.768 140.419 112.857 140.489C112.945 140.56 113.067 140.654 113.171 140.746C113.275 140.839 113.336 140.911 113.413 140.982C113.51 141.085 113.606 141.188 113.695 141.296C113.721 141.321 113.739 141.347 113.759 141.367L113.894 141.54C114.048 141.75 114.189 141.97 114.315 142.198C114.44 142.432 114.55 142.674 114.645 142.921C114.796 143.341 114.897 143.777 114.946 144.22C114.946 144.304 114.959 144.385 114.966 144.464V144.522C114.969 144.596 114.969 144.68 114.969 144.762V144.762Z" stroke="black" stroke-width="0.924" stroke-linecap="square" stroke-linejoin="round"/>
<path fill-rule="evenodd" clip-rule="evenodd" d="M119.077 157.841H87.1464C86.4348 157.86 85.725 157.759 85.0472 157.541C84.9122 157.49 84.7854 157.439 84.6636 157.377C84.5418 157.312 84.4331 157.248 84.3244 157.184C84.2158 157.12 84.1203 157.038 84.0232 156.96C83.9277 156.876 83.8388 156.795 83.7548 156.71C83.3166 156.272 82.9917 155.734 82.8081 155.143C82.6916 154.774 82.6332 154.39 82.6352 154.003C82.634 153.853 82.6428 153.704 82.6616 153.555C82.6859 153.347 82.7305 153.141 82.7949 152.941C82.8841 152.625 83.0224 152.325 83.2049 152.052C83.3091 151.874 83.4334 151.708 83.5753 151.558C83.6625 151.461 83.7549 151.369 83.8519 151.282C84.6323 150.585 85.765 150.156 87.1661 150.156H119.077C118.948 150.156 118.859 150.156 118.795 150.156C118.774 150.152 118.752 150.152 118.731 150.156C118.667 150.156 118.68 150.156 118.711 150.156C118.715 150.159 118.721 150.159 118.724 150.156C118.739 150.159 118.754 150.159 118.769 150.156H118.802C118.731 150.169 118.66 150.175 118.589 150.193H118.575C118.575 150.193 118.555 150.193 118.548 150.193C116.749 150.551 115.451 152.128 115.445 153.962C115.455 155.903 116.904 157.535 118.83 157.777C118.673 157.836 118.527 157.841 119.077 157.841V157.841Z" stroke="black" stroke-width="0.924" stroke-linecap="square" stroke-linejoin="round"/>
<path fill-rule="evenodd" clip-rule="evenodd" d="M118.82 157.823C118.673 157.836 118.527 157.841 118.379 157.841H96.3284C95.3123 157.84 94.3383 157.435 93.6217 156.715C93.1835 156.277 92.8586 155.739 92.675 155.147C92.5612 154.778 92.5057 154.394 92.5104 154.008C92.514 151.892 94.2268 150.176 96.3432 150.169H118.379C118.487 150.169 118.603 150.169 118.708 150.182C118.727 150.185 118.746 150.185 118.765 150.182H118.798C118.728 150.195 118.657 150.202 118.586 150.22H118.575C118.575 150.22 118.555 150.22 118.548 150.22C116.749 150.578 115.451 152.154 115.445 153.988C115.455 155.929 116.904 157.562 118.83 157.803L118.82 157.823Z" stroke="black" stroke-width="0.924" stroke-linecap="square" stroke-linejoin="round"/>
<path fill-rule="evenodd" clip-rule="evenodd" d="M92.4955 154.008C92.4955 156.125 94.2115 157.841 96.3283 157.841H87.1464C85.393 157.841 84.4331 157.413 83.735 156.715C83.0165 155.997 82.6136 155.023 82.6155 154.008C82.6155 151.897 84.3376 150.169 87.1464 150.169H96.3283C94.212 150.176 92.4991 151.892 92.4955 154.008V154.008Z" stroke="black" stroke-width="0.924" stroke-linecap="square" stroke-linejoin="round"/>
<path fill-rule="evenodd" clip-rule="evenodd" d="M119.077 157.841H118.379C118.527 157.841 118.673 157.841 118.82 157.823C118.673 157.836 118.527 157.841 119.077 157.841V157.841Z" stroke="black" stroke-width="0.924" stroke-linecap="square" stroke-linejoin="round"/>
<path fill-rule="evenodd" clip-rule="evenodd" d="M118.769 150.185C118.642 150.185 118.507 150.165 118.379 150.165H119.077C118.589 150.169 118.647 150.185 118.769 150.185Z" stroke="black" stroke-width="0.924" stroke-linecap="square" stroke-linejoin="round"/>
<path opacity="0.54" d="M23.0833 143.398L11.6539 114.119C11.367 112.971 11.6249 111.755 12.353 110.822C13.0811 109.89 14.1982 109.345 15.3814 109.344H60.7858C62.884 109.344 64.709 110.782 65.1998 112.822L77.7125 142.098C77.9873 143.242 77.7224 144.45 76.9935 145.374C76.2647 146.299 75.1523 146.838 73.9751 146.838H27.4841C25.4015 146.838 23.5867 145.419 23.0833 143.398Z" fill="white"/>
<path d="M23.0833 143.398L11.6539 114.119C11.367 112.971 11.6249 111.755 12.353 110.822C13.0811 109.89 14.1982 109.345 15.3814 109.344H60.7858C62.884 109.344 64.709 110.782 65.1998 112.822L77.7125 142.098C77.9873 143.242 77.7224 144.45 76.9935 145.374C76.2647 146.299 75.1523 146.838 73.9751 146.838H27.4841C25.4015 146.838 23.5867 145.419 23.0833 143.398Z" fill="#FF2352"/>
<path fill-rule="evenodd" clip-rule="evenodd" d="M23.0833 143.398L11.6539 114.119C11.367 112.971 11.6249 111.755 12.353 110.822C13.0811 109.89 14.1982 109.345 15.3814 109.344H60.7858C62.884 109.344 64.709 110.782 65.1998 112.822L77.7125 142.098C77.9873 143.242 77.7224 144.45 76.9935 145.374C76.2647 146.299 75.1523 146.838 73.9751 146.838H27.4841C25.4015 146.838 23.5867 145.419 23.0833 143.398Z" stroke="black" stroke-width="0.924" stroke-linecap="square" stroke-linejoin="round"/>
<path d="M24.7527 142.213L14.2157 115.201C13.9507 114.142 14.1878 113.021 14.8586 112.16C15.5294 111.3 16.5591 110.796 17.6501 110.795H59.5313C61.4668 110.795 63.1501 112.122 63.6028 114.004L75.1457 141.005C75.3993 142.061 75.155 143.175 74.4827 144.028C73.8104 144.881 72.7843 145.379 71.6981 145.379H28.816C26.896 145.38 25.2214 144.075 24.7527 142.213Z" fill="#FF2352"/>
<path d="M56.5052 115.762C55.9503 114.927 55.0432 114.557 54.4768 114.939C53.9104 115.321 53.9022 116.297 54.457 117.132C54.5445 117.259 54.6425 117.379 54.7501 117.489L50.6341 126.177C49.9755 125.739 49.2561 125.631 48.7391 125.976C48.4012 126.222 48.1895 126.605 48.1612 127.022L45.3492 126.072L42.8911 125.249L42.0876 124.985C41.9869 124.683 41.8469 124.396 41.6711 124.131C40.8907 122.958 39.6164 122.438 38.8212 122.967C38.026 123.495 38.0177 124.847 38.7767 126.011L34.0993 132.404C33.0785 131.566 31.875 131.307 31.0419 131.861C29.9092 132.616 29.8895 134.584 31.0041 136.256C31.0485 136.322 31.0996 136.378 31.1457 136.441L28.0224 140.708L27.9945 140.749C27.7547 141.073 27.7129 141.502 27.8857 141.865C28.0585 142.229 28.4177 142.467 28.8197 142.485C29.2217 142.503 29.6008 142.298 29.8055 141.951L32.583 137.771C33.4589 138.28 34.394 138.377 35.074 137.923C36.1573 137.201 36.2083 135.377 35.2386 133.757L39.7251 126.986C40.3836 127.435 41.1179 127.55 41.6415 127.203C41.9342 126.997 42.1336 126.683 42.1963 126.33L42.5256 126.424L45.0265 127.107L48.2271 127.97C48.3243 128.353 48.4858 128.717 48.7045 129.047C49.4833 130.217 50.7592 130.739 51.5544 130.211C52.3496 129.682 52.3595 128.304 51.5808 127.134C51.4658 126.964 51.337 126.803 51.1955 126.655L55.1123 117.799C55.5848 118.128 56.1001 118.202 56.4805 117.953C57.0551 117.586 57.0633 116.598 56.5052 115.762Z" fill="white"/>
<path d="M26.7053 116.241H20.6383C20.068 116.243 19.5507 115.907 19.3212 115.385C19.2866 115.307 19.2681 115.222 19.2669 115.136C19.2705 114.792 19.55 114.515 19.8942 114.514H26.3464C26.0468 115.026 26.2114 115.737 26.7053 116.241Z" fill="#FFD3DC"/>
<path d="M30.6337 115.619C30.6318 115.962 30.3533 116.24 30.0097 116.241H26.7053C26.2015 115.737 26.0468 115.026 26.3514 114.514H29.2655C29.8347 114.511 30.3517 114.845 30.5826 115.365C30.6166 115.445 30.634 115.532 30.6337 115.619Z" fill="#FF2352"/>
<path d="M29.1157 116.241C29.0979 116.274 29.0781 116.306 29.0564 116.337C28.6217 116.928 27.6833 116.984 26.9539 116.45C26.8666 116.387 26.7846 116.317 26.7086 116.241C26.2048 115.737 26.0501 115.026 26.3546 114.514C26.3712 114.48 26.391 114.448 26.4139 114.419C26.8436 113.824 27.7821 113.773 28.5114 114.302C28.6001 114.365 28.6832 114.437 28.76 114.514C29.2605 115.02 29.4153 115.724 29.1157 116.241Z" fill="white"/>
<path d="M32.1599 119.429C32.1572 119.773 31.8771 120.051 31.5326 120.051H25.1627C25.4706 119.534 25.3174 118.829 24.812 118.324H30.795C31.3653 118.322 31.8827 118.658 32.1121 119.18C32.1445 119.259 32.1607 119.343 32.1599 119.429Z" fill="#FF2352"/>
<path d="M25.1627 120.056H22.1662C21.5971 120.059 21.08 119.725 20.8491 119.205C20.8146 119.125 20.7961 119.039 20.7948 118.953C20.7939 118.787 20.8591 118.628 20.976 118.511C21.0928 118.394 21.2516 118.328 21.4171 118.329H24.812C25.3174 118.829 25.4705 119.534 25.1627 120.056Z" fill="#FFD3DC"/>
<path d="M25.1627 120.056C25.149 120.09 25.1307 120.122 25.1083 120.151C24.6786 120.747 23.7385 120.798 23.0092 120.27C22.9189 120.205 22.8337 120.133 22.754 120.056C22.2601 119.552 22.0954 118.846 22.4 118.329C22.4162 118.295 22.436 118.264 22.4593 118.235C22.8923 117.642 23.8307 117.588 24.5617 118.12C24.6481 118.183 24.7296 118.253 24.8054 118.329C25.3174 118.829 25.4705 119.534 25.1627 120.056Z" fill="white"/>
<path d="M27.2849 123.843H23.4718C22.9026 123.844 22.3861 123.51 22.1547 122.99C22.1201 122.911 22.1016 122.827 22.1004 122.741C22.1013 122.395 22.3816 122.115 22.7276 122.114H26.9227C26.6296 122.623 26.7844 123.329 27.2849 123.843Z" fill="#FF2352"/>
<path d="M33.4655 123.215C33.4636 123.558 33.1845 123.835 32.8415 123.834H27.2849C26.7909 123.329 26.6263 122.623 26.9292 122.106H32.1006C32.6683 122.105 33.1823 122.442 33.4095 122.962C33.4452 123.042 33.4643 123.128 33.4655 123.215Z" fill="#FFD3DC"/>
<path d="M29.6903 123.843C29.6741 123.876 29.6542 123.907 29.631 123.936C29.2013 124.532 28.2628 124.583 27.5335 124.055C27.4459 123.99 27.3629 123.919 27.2849 123.843C26.7909 123.337 26.6263 122.631 26.9292 122.114C26.9466 122.081 26.9664 122.05 26.9885 122.02C27.4232 121.429 28.3616 121.376 29.091 121.905C29.1775 121.969 29.2595 122.038 29.3363 122.114C29.8335 122.611 29.9981 123.321 29.6903 123.843Z" fill="white"/>
<path d="M51.9397 141.68H48.125C47.5558 141.681 47.0393 141.347 46.8079 140.827C46.772 140.749 46.7529 140.664 46.7519 140.578C46.7528 140.232 47.0331 139.952 47.3792 139.951H51.5759C51.2844 140.471 51.4392 141.174 51.9397 141.68Z" fill="#FF2352"/>
<path d="M67.0784 141.061C67.0779 141.225 67.0121 141.383 66.8954 141.499C66.7787 141.615 66.6207 141.68 66.456 141.68H51.9397C51.4458 141.174 51.2812 140.468 51.5841 139.951H65.7135C66.2812 139.951 66.7952 140.287 67.0224 140.807C67.0581 140.887 67.0772 140.973 67.0784 141.061Z" fill="#FFD3DC"/>
<path d="M54.3451 141.68C54.329 141.713 54.3091 141.745 54.2859 141.774C53.8561 142.37 52.9177 142.421 52.1883 141.892C52.1005 141.827 52.0174 141.756 51.9397 141.68C51.4458 141.174 51.2812 140.468 51.5841 139.951C51.6015 139.918 51.6213 139.887 51.6434 139.857C52.078 139.266 53.0165 139.214 53.7458 139.742C53.8324 139.806 53.9144 139.876 53.9911 139.951C54.4949 140.457 54.6497 141.166 54.3451 141.68Z" fill="white"/>
</svg>
