<svg width="36" height="24" viewBox="0 0 36 24" fill="none" xmlns="http://www.w3.org/2000/svg">
<path d="M14.7963 11.5119C14.9536 11.5119 15.0747 11.5856 15.1594 11.7329C15.2562 11.8803 15.3046 12.0829 15.3046 12.3408C15.3046 12.8196 15.1896 13.2003 14.9597 13.4827C14.2819 14.3055 13.6223 14.8826 12.9808 15.2141C12.3514 15.5457 11.5889 15.7114 10.6933 15.7114C10.0639 15.7114 9.48294 15.6316 8.95039 15.472C8.41785 15.3124 7.77032 15.0729 7.00781 14.7536C6.31792 14.4467 5.65224 14.1949 5.01077 13.9985C4.3935 15.1404 3.4676 15.7114 2.23306 15.7114C1.55527 15.7114 1.01668 15.5579 0.617268 15.251C0.205756 14.9317 0 14.5265 0 14.0353C0 13.4336 0.284428 12.9363 0.853283 12.5434C1.42214 12.1381 2.17859 11.9355 3.12265 11.9355H3.35867L3.68546 6.5756C3.75808 5.34766 3.97594 4.33461 4.33903 3.53646C4.70213 2.7383 5.20442 2.05679 5.8459 1.49194C6.40265 1.00077 7.03807 0.632388 7.75217 0.386801C8.46626 0.128934 9.22272 0 10.0215 0C11.3287 0 12.3333 0.343822 13.0353 1.03147C13.7373 1.71911 14.0882 2.6155 14.0882 3.72064C14.0882 4.46969 13.9551 5.07751 13.6888 5.54413C13.4226 5.99847 13.0534 6.22563 12.5814 6.22563C12.2425 6.22563 11.9762 6.14582 11.7826 5.98619C11.5889 5.81428 11.4921 5.57483 11.4921 5.26784C11.4921 5.15733 11.5163 4.95472 11.5647 4.66002C11.6373 4.31619 11.6736 4.00921 11.6736 3.73906C11.6736 3.22333 11.5223 2.81811 11.2198 2.52341C10.9293 2.21642 10.4815 2.06293 9.8763 2.06293C8.8112 2.06293 7.98818 2.41903 7.40722 3.13124C6.82626 3.83116 6.45711 4.9363 6.29977 6.44666L5.88221 10.6278C5.82169 11.2172 5.74302 11.7268 5.64619 12.1566C6.4208 12.2916 7.38907 12.5065 8.55098 12.8012C9.22877 12.9731 9.74921 13.0959 10.1123 13.1696C10.4754 13.2433 10.7961 13.2801 11.0745 13.2801C11.7765 13.2801 12.3756 13.1635 12.8719 12.9302C13.3802 12.6846 13.8583 12.2978 14.3061 11.7698C14.4513 11.5979 14.6147 11.5119 14.7963 11.5119Z" fill="#FF2352"/>
<path d="M15.6832 15.7114C15.1385 15.7114 14.6907 15.4597 14.3397 14.9563C14.0008 14.4405 13.8314 13.802 13.8314 13.0407C13.8314 12.1197 13.8919 11.2786 14.0129 10.5173C14.134 9.74367 14.3337 8.92709 14.612 8.06754C14.7331 7.69916 14.9025 7.43515 15.1204 7.27552C15.3382 7.11589 15.6832 7.03607 16.1552 7.03607C16.4215 7.03607 16.603 7.07905 16.6999 7.165C16.8088 7.25096 16.8633 7.37989 16.8633 7.5518C16.8633 7.65004 16.7967 7.98158 16.6636 8.54643C16.5425 9.00077 16.4457 9.41213 16.3731 9.78051C16.131 11.0698 16.01 11.9294 16.01 12.3592C16.01 12.617 16.0402 12.8012 16.1007 12.9117C16.1613 13.01 16.2581 13.0591 16.3912 13.0591C16.5728 13.0591 16.7967 12.8749 17.063 12.5065C17.3413 12.1381 17.6318 11.5794 17.9344 10.8304C18.2491 10.0814 18.5517 9.1604 18.8421 8.06754C18.939 7.69916 19.0842 7.43515 19.2779 7.27552C19.4836 7.11589 19.7862 7.03607 20.1856 7.03607C20.464 7.03607 20.6576 7.07291 20.7666 7.14659C20.8755 7.20798 20.93 7.33078 20.93 7.51497C20.93 7.82195 20.7787 8.66309 20.4761 10.0384C20.1372 11.6101 19.9678 12.5802 19.9678 12.9486C19.9678 13.1819 20.0162 13.3661 20.113 13.5012C20.2098 13.6239 20.3369 13.6853 20.4942 13.6853C20.7363 13.6853 21.0207 13.538 21.3475 13.2433C21.6864 12.9363 22.1342 12.4451 22.691 11.7698C22.8362 11.5979 22.9996 11.5119 23.1812 11.5119C23.3385 11.5119 23.4596 11.5856 23.5443 11.7329C23.6411 11.8803 23.6895 12.0829 23.6895 12.3408C23.6895 12.8319 23.5745 13.2126 23.3446 13.4827C22.8241 14.1335 22.2613 14.6677 21.6562 15.0852C21.0631 15.5027 20.3853 15.7114 19.6228 15.7114C19.0419 15.7114 18.6122 15.4843 18.3338 15.0299C18.0675 14.5756 17.9344 13.9371 17.9344 13.1144C17.7286 13.9493 17.42 14.594 17.0085 15.0484C16.597 15.4904 16.1552 15.7114 15.6832 15.7114Z" fill="#FF2352"/>
<path d="M25.685 15.7114C24.4989 15.7114 23.573 15.3738 22.9073 14.6984C22.2537 14.0107 21.9269 13.1082 21.9269 11.9908C21.9269 10.9962 22.1206 10.1243 22.5079 9.37529C22.8952 8.62625 23.3975 8.04912 24.0147 7.6439C24.632 7.23868 25.2795 7.03607 25.9573 7.03607C26.623 7.03607 27.1374 7.23868 27.5005 7.6439C27.8757 8.03684 28.0633 8.54643 28.0633 9.17268C28.0633 9.68841 27.9483 10.1243 27.7184 10.4804C27.5005 10.8365 27.21 11.0146 26.8469 11.0146C26.617 11.0146 26.4294 10.9593 26.2841 10.8488C26.151 10.7383 26.0844 10.5848 26.0844 10.3883C26.0844 10.3024 26.0965 10.2041 26.1207 10.0936C26.1449 9.98312 26.1631 9.9033 26.1752 9.85418C26.2357 9.66999 26.266 9.49808 26.266 9.33845C26.266 9.17882 26.2236 9.05603 26.1389 8.97007C26.0663 8.88411 25.9573 8.84114 25.8121 8.84114C25.5337 8.84114 25.2735 8.97007 25.0314 9.22794C24.7894 9.47352 24.5957 9.81121 24.4505 10.241C24.3052 10.6708 24.2326 11.1435 24.2326 11.6592C24.2326 13.0837 24.8438 13.7959 26.0663 13.7959C26.5625 13.7959 27.095 13.6301 27.6639 13.2985C28.2449 12.9547 28.8137 12.4451 29.3705 11.7698C29.5157 11.5979 29.6791 11.5119 29.8606 11.5119C30.018 11.5119 30.139 11.5856 30.2237 11.7329C30.3206 11.8803 30.369 12.0829 30.369 12.3408C30.369 12.8074 30.254 13.188 30.024 13.4827C29.4552 14.1949 28.7713 14.7475 27.9725 15.1404C27.1858 15.5211 26.4233 15.7114 25.685 15.7114Z" fill="#FF2352"/>
<path d="M35.2556 7.03607C35.534 7.03607 35.7277 7.07291 35.8366 7.14659C35.9455 7.22026 36 7.34305 36 7.51497C36 7.80967 35.8427 8.85956 35.528 10.6646C35.2496 12.396 35.0862 13.4213 35.0378 13.7406C34.59 16.8964 33.9727 19.3952 33.186 21.2371C32.3993 23.079 31.3523 24 30.0452 24C29.4279 24 28.9256 23.8035 28.5383 23.4106C28.151 23.0299 27.9574 22.5265 27.9574 21.9002C27.9574 21.3231 28.0844 20.7337 28.3386 20.132C28.6049 19.5303 29.089 18.8365 29.791 18.0507C30.5051 17.2771 31.5097 16.3868 32.8047 15.3799L32.8592 14.9563C32.9439 14.5019 33.0407 13.8511 33.1497 13.0038C32.9076 13.888 32.5687 14.5633 32.133 15.0299C31.6973 15.4843 31.2373 15.7114 30.7532 15.7114C30.2086 15.7114 29.7607 15.4597 29.4097 14.9563C29.0709 14.4405 28.9014 13.802 28.9014 13.0407C28.9014 12.1197 28.9619 11.2786 29.083 10.5173C29.204 9.74367 29.4037 8.92709 29.6821 8.06754C29.8031 7.69916 29.9726 7.43515 30.1904 7.27552C30.4083 7.11589 30.7532 7.03607 31.2252 7.03607C31.4915 7.03607 31.6731 7.07905 31.7699 7.165C31.8788 7.25096 31.9333 7.37989 31.9333 7.5518C31.9333 7.65004 31.8667 7.98158 31.7336 8.54643C31.6126 9.00077 31.5157 9.41213 31.4431 9.78051C31.3463 10.284 31.2616 10.769 31.1889 11.2356C31.1163 11.6899 31.08 12.0645 31.08 12.3592C31.08 12.8258 31.2071 13.0591 31.4613 13.0591C31.6428 13.0591 31.8667 12.8749 32.133 12.5065C32.4114 12.1381 32.7019 11.5794 33.0044 10.8304C33.3191 10.0814 33.6217 9.1604 33.9122 8.06754C34.009 7.69916 34.1542 7.43515 34.3479 7.27552C34.5537 7.11589 34.8562 7.03607 35.2556 7.03607ZM30.2449 22.2134C30.5475 22.2134 30.8864 21.8573 31.2616 21.1451C31.6368 20.4328 32.012 19.2479 32.3872 17.5902C31.4552 18.3883 30.7774 19.1128 30.3538 19.7636C29.9423 20.4267 29.7365 21.0038 29.7365 21.495C29.7365 21.7038 29.7729 21.8757 29.8455 22.0107C29.9302 22.1458 30.0633 22.2134 30.2449 22.2134Z" fill="#FF2352"/>
</svg>
